<svg width="14" height="11" viewBox="0 0 14 11" fill="none" xmlns="http://www.w3.org/2000/svg">
<path d="M5.77964 9.22033C5.85333 9.289 5.91243 9.3718 5.95343 9.4638C5.99442 9.5558 6.01646 9.65511 6.01824 9.75581C6.02001 9.85651 6.00149 9.95654 5.96377 10.0499C5.92605 10.1433 5.8699 10.2282 5.79868 10.2994C5.72746 10.3706 5.64263 10.4267 5.54924 10.4645C5.45585 10.5022 5.35583 10.5207 5.25512 10.5189C5.15442 10.5171 5.05511 10.4951 4.96311 10.4541C4.87111 10.4131 4.78831 10.354 4.71965 10.2803L0.719645 6.28033C0.579194 6.13971 0.500305 5.94909 0.500305 5.75033C0.500305 5.55158 0.579194 5.36096 0.719645 5.22033L4.71965 1.22033C4.78831 1.14665 4.87111 1.08755 4.96311 1.04655C5.05511 1.00556 5.15442 0.98352 5.25512 0.981744C5.35583 0.979967 5.45585 0.998491 5.54924 1.03621C5.64263 1.07393 5.72746 1.13008 5.79868 1.2013C5.8699 1.27252 5.92605 1.35735 5.96377 1.45074C6.00149 1.54413 6.02001 1.64415 6.01824 1.74486C6.01646 1.84556 5.99442 1.94487 5.95343 2.03687C5.91243 2.12887 5.85333 2.21167 5.77964 2.28033L3.05964 5.00033L12.7496 5.00033C12.9486 5.00033 13.1393 5.07935 13.28 5.22C13.4206 5.36066 13.4996 5.55142 13.4996 5.75033C13.4996 5.94925 13.4206 6.14001 13.28 6.28066C13.1393 6.42132 12.9486 6.50033 12.7496 6.50033L3.05965 6.50033L5.77964 9.22033Z" fill="black"/>
</svg>
