<svg width="19" height="19" viewBox="0 0 19 19" fill="none" xmlns="http://www.w3.org/2000/svg">
<path d="M18.4062 9.4826C18.4156 14.5532 14.2804 18.6995 9.2098 18.7031C7.01979 18.7046 5.00817 17.9412 3.42735 16.6654C3.01629 16.3336 2.98556 15.7176 3.3591 15.344L3.77721 14.9259C4.09669 14.6064 4.60672 14.5715 4.96067 14.8523C6.12535 15.7765 7.59929 16.3281 9.20312 16.3281C12.9773 16.3281 16.0312 13.2736 16.0312 9.5C16.0312 5.72579 12.9767 2.67188 9.20312 2.67188C7.39167 2.67188 5.74642 3.3758 4.52482 4.52482L6.40827 6.40827C6.78233 6.78233 6.51741 7.42188 5.98845 7.42188H0.59375C0.265814 7.42188 0 7.15606 0 6.82812V1.43342C0 0.904467 0.639543 0.639543 1.01361 1.01357L2.84577 2.84573C4.49799 1.26677 6.73728 0.296875 9.20312 0.296875C14.2801 0.296875 18.3969 4.40785 18.4062 9.4826ZM11.6927 12.4062L12.0572 11.9375C12.3592 11.5493 12.2893 10.9897 11.901 10.6877L10.3906 9.51295V5.64062C10.3906 5.14874 9.99188 4.75 9.5 4.75H8.90625C8.41437 4.75 8.01562 5.14874 8.01562 5.64062V10.6745L10.4429 12.5625C10.8312 12.8644 11.3907 12.7945 11.6927 12.4062Z" fill="black"/>
</svg>
