<svg width="19" height="20" viewBox="0 0 19 20" fill="none" xmlns="http://www.w3.org/2000/svg">
<path d="M4.70312 0C3.64226 0 2.62484 0.421427 1.8747 1.17157C1.12455 1.92172 0.703125 2.93913 0.703125 4V16C0.703125 17.0609 1.12455 18.0783 1.8747 18.8284C2.62484 19.5786 3.64226 20 4.70312 20H18.7031V0H4.70312ZM8.70312 3H15.7031V5H8.70312V3ZM2.70312 16C2.70312 15.4696 2.91384 14.9609 3.28891 14.5858C3.66398 14.2107 4.17269 14 4.70312 14H16.7031V18H4.70312C4.17269 18 3.66398 17.7893 3.28891 17.4142C2.91384 17.0391 2.70313 16.5304 2.70312 16Z" fill="black"/>
</svg>
